<svg xmlns="http://www.w3.org/2000/svg" version="1.1" xmlns:xlink="http://www.w3.org/1999/xlink" width="1500" height="394" viewBox="0 0 1500 394"><svg xml:space="preserve" width="1500" height="394" data-version="2" data-id="lg_6BYTNAKPOrqQamIHpA" viewBox="0 0 571 394" x="0" y="0"><rect width="100%" height="100%" fill="transparent"></rect><path fill="#f97d2a" d="M115.77 339.41h12.67l13.73 29.78h-.75l13.72-29.78h12.23v48.68h-8.93v-38.48h1.35l-15.15 33.15h-5.77l-15.08-33h.83v38.33h-8.85Z"></path><rect width="51.6" height="48.68" x="-25.8" y="-24.34" fill="none" rx="0" ry="0" transform="translate(142.07 364.25)"></rect><path fill="#f97d2a" d="M199.05 389.14q-6.41 0-11.15-3.06-4.75-3.05-7.37-8.75-2.63-5.7-2.63-13.69 0-8.25 2.72-13.86 2.72-5.6 7.5-8.47 4.78-2.87 10.93-2.87 8.52 0 13.3 4.12 4.78 4.13 6.13 10.73l-9.45 1.72q-1.16-3.82-3.71-6.18-2.55-2.37-6.27-2.37-3.26 0-5.88 1.9-2.63 1.89-4.19 5.72-1.55 3.82-1.55 9.56 0 5.4 1.37 9.3 1.37 3.9 3.95 6 2.59 2.1 6.3 2.1 4.77 0 7.37-2.53 2.61-2.53 2.61-6.47h9.45q0 5.44-2.35 9.24-2.34 3.81-6.69 5.83-4.35 2.03-10.39 2.03"></path><rect width="40.58" height="50.7" x="-20.29" y="-25.35" fill="none" rx="0" ry="0" transform="translate(198.69 364.29)"></rect><path fill="#f97d2a" d="M228.72 339.41h9.67l22.13 34.73h-.68v-34.73h8.85v48.68h-9l-23.55-36.83h1.43v36.83h-8.85Z"></path><rect width="39.97" height="48.68" x="-19.98" y="-24.34" fill="none" rx="0" ry="0" transform="translate(249.2 364.25)"></rect><path fill="#f97d2a" d="M299.59 389.14q-5.06 0-9.32-1.76-4.25-1.77-6.9-5.37-2.64-3.6-2.83-9.15h8.7q0 2.82 1.39 4.62 1.39 1.8 3.73 2.68 2.34.88 5.16.88 2.7 0 4.81-.71 2.12-.72 3.34-2.05 1.22-1.33 1.22-3.17 0-2.43-1.48-3.82-1.48-1.39-4.74-2.55l-9.6-3.83q-5.63-2.21-8.63-5.13-3-2.93-3-8.07 0-5.92 4.69-9.6 4.69-3.67 13.09-3.67 8.17 0 12.63 3.81 4.47 3.8 5.07 10.59h-8.7q-.49-2.89-2.63-4.63-2.14-1.75-6.37-1.75-3.75 0-5.93 1.56-2.17 1.56-2.17 3.92 0 2.02 1.36 3.21 1.37 1.18 4.26 2.26l10.65 4.13q5.4 2.1 8.29 5.29 2.89 3.18 2.89 7.98 0 4.39-2.22 7.6-2.21 3.2-6.45 4.97-4.23 1.76-10.31 1.76"></path><rect width="38.03" height="50.7" x="-19.02" y="-25.35" fill="none" rx="0" ry="0" transform="translate(300.06 364.29)"></rect><path fill="#f97d2a" d="M325.28 382.91q0-2.55 1.72-4.27 1.73-1.73 4.43-1.73 2.7 0 4.5 1.73 1.8 1.72 1.8 4.27 0 2.52-1.8 4.19-1.8 1.66-4.5 1.66t-4.43-1.68q-1.72-1.69-1.72-4.17"></path><rect width="12.45" height="11.85" x="-6.22" y="-5.92" fill="none" rx="0" ry="0" transform="translate(332 383.33)"></rect><path fill="#f97d2a" d="M346.58 339.41h15.75q7.42 0 13.01 2.99 5.59 2.98 8.7 8.45 3.11 5.48 3.11 12.94 0 7.39-3.11 12.84-3.11 5.46-8.7 8.46-5.59 3-13.01 3h-15.75Zm8.85 8.03v32.7h6.9q4.72 0 8.15-2.14 3.44-2.14 5.29-5.83 1.86-3.69 1.86-8.38 0-4.76-1.86-8.44-1.85-3.67-5.29-5.79-3.43-2.12-8.15-2.12Z"></path><rect width="40.57" height="48.68" x="-20.29" y="-24.34" fill="none" rx="0" ry="0" transform="translate(367.37 364.25)"></rect><path fill="#f97d2a" d="M397.99 388.09v-48.68h31.28v7.65h-22.43v12.83h21.08v7.65h-21.08v12.82h22.43v7.73Z"></path><rect width="31.28" height="48.68" x="-15.64" y="-24.34" fill="none" rx="0" ry="0" transform="translate(414.13 364.25)"></rect><path fill="#f97d2a" d="m457.2 378.41 12.45-39h9.3l-16.72 48.68h-9.3l-16.5-48.68h9.37l12.3 39Z"></path><rect width="42.52" height="48.68" x="-21.26" y="-24.34" fill="none" rx="0" ry="0" transform="translate(458.19 364.25)"></rect><path fill="#4d78b0" stroke="#f97d2a" stroke-width="3.55" d="M563.726 86.462v137.59a7.464 7.464 0 0 1-7.488 7.489H418.41a7.464 7.464 0 0 0-6.303 3.46C385.615 276.99 338.804 304.88 285.5 304.88S185.384 276.99 158.892 235a7.464 7.464 0 0 0-6.303-3.46H14.76a7.464 7.464 0 0 1-7.488-7.487V86.463a7.464 7.464 0 0 1 7.488-7.489h137.816a7.45 7.45 0 0 0 6.303-3.46C185.372 33.526 232.184 5.636 285.5 5.636s100.127 27.89 126.62 69.88a7.464 7.464 0 0 0 6.302 3.46h137.816a7.464 7.464 0 0 1 7.488 7.487"></path><circle r="118.49" stroke="#f97d2a" stroke-width="3" transform="translate(285.83 156.6)scale(1.097)"></circle><path fill="#f97d2a" d="M353.55 202.36v7.1h-25.13v-7.1h11.36l-27.41-95.71h-10.08l-15.33 95.71h10.79v7.1h-25.14v-7.1h10.23l-12.07-95.71h-9.66l-27.4 95.71h12.63v7.1h-25.27v-7.1h8.52v-95.71h-12.07v-7.1H343.9v102.81Z"></path><rect width="136.03" height="109.91" x="-68.02" y="-54.95" fill="none" rx="0" ry="0" transform="translate(286.04 155)"></rect><path fill="#f97d2a" d="M486.28 197.87c-24.492 0-44.365-19.873-44.365-44.365s19.873-44.472 44.364-44.472c24.492 0 44.472 19.98 44.472 44.472s-19.98 44.364-44.472 44.364m0-86.688c-23.31 0-42.216 18.906-42.216 42.324 0 23.31 18.906 42.216 42.216 42.216 23.31 0 42.324-19.013 42.324-42.323s-19.013-42.217-42.324-42.217"></path><path fill="#f97d2a" d="M486.172 197.87c-12.89 0-24.062-19.98-24.062-44.472s11.172-44.365 24.062-44.365v2.148c-11.816 0-21.914 19.014-21.914 42.324s10.098 42.216 21.914 42.216zm0 0v-2.149c11.816 0 21.914-19.013 21.914-42.323s-10.098-42.217-21.914-42.217v-2.148c12.89 0 24.062 19.98 24.062 44.472s-11.172 44.364-24.062 44.364"></path><path fill="#f97d2a" d="M484.024 197.87v-2.149s-.645.215-.752.215c.966-1.504 2.363-17.08 2.363-42.538 0-25.459-1.29-41.035-2.256-42.539 0 .108.645.322.645.322v-2.148c1.074 0 2.04 0 3.007 13.75.537 8.164.752 19.12.752 30.722s-.215 22.558-.752 30.722c-.859 13.642-1.933 13.642-3.007 13.642"></path><path fill="#f97d2a" d="M530.644 150.605h-2.149c0-11.817-19.013-21.914-42.323-21.914-23.203 0-42.216 10.097-42.216 21.914h-2.148c0-12.89 19.98-24.062 44.471-24.062 24.492 0 44.365 11.171 44.365 24.062"></path><path fill="#f97d2a" d="M530.644 151.679h-2.149c0-2.149-14.501-6.123-42.323-6.123-27.714 0-42.216 3.974-42.216 6.123h-2.148c0-7.52 29.11-8.272 44.471-8.272 15.361 0 44.365.752 44.365 8.272m-44.365 31.581c-24.491 0-44.471-11.171-44.471-24.062h2.148c0 11.816 19.013 21.914 42.323 21.914s42.324-10.098 42.324-21.914h2.148c-.107 12.89-19.98 24.062-44.472 24.062"></path><path fill="#f97d2a" d="M486.28 165.966c-21.592 0-44.472-3.545-44.472-11.065h2.148c0 2.149 3.115 4.082 11.816 6.016 8.164 1.826 18.906 2.9 30.4 2.9s22.343-1.074 30.4-2.9c8.7-2.041 11.816-3.867 11.816-6.016h2.148c.108 7.52-22.773 11.065-44.257 11.065M78.963 202.807c-27.312 0-49.473-22.16-49.473-49.473 0-27.312 22.161-49.593 49.473-49.593 27.312 0 49.593 22.28 49.593 49.593 0 27.312-22.28 49.473-49.593 49.473m0-96.67c-25.994 0-47.077 21.083-47.077 47.197 0 25.994 21.083 47.077 47.077 47.077 25.995 0 47.198-21.202 47.198-47.197s-21.203-47.077-47.198-47.077"></path><path fill="#f97d2a" d="M78.843 202.807c-14.374 0-26.832-22.28-26.832-49.593 0-27.312 12.458-49.473 26.832-49.473v2.396c-13.176 0-24.437 21.203-24.437 47.197s11.26 47.077 24.437 47.077zm0 0v-2.395c13.177 0 24.438-21.203 24.438-47.198s-11.26-47.077-24.438-47.077v-2.396c14.375 0 26.833 22.28 26.833 49.593 0 27.312-12.458 49.473-26.833 49.473"></path><path fill="#f97d2a" d="M76.448 202.807v-2.395s-.719.24-.839.24c1.078-1.678 2.636-19.048 2.636-47.438 0-28.39-1.438-45.76-2.516-47.437 0 .12.719.36.719.36v-2.396c1.198 0 2.276 0 3.354 15.333.599 9.104.838 21.323.838 34.26s-.24 25.156-.838 34.26c-.959 15.213-2.156 15.213-3.354 15.213"></path><path fill="#f97d2a" d="M128.437 150.1h-2.396c0-13.177-21.203-24.437-47.198-24.437-25.874 0-47.077 11.26-47.077 24.437H29.37c0-14.375 22.281-26.833 49.593-26.833 27.312 0 49.474 12.458 49.474 26.833"></path><path fill="#f97d2a" d="M128.437 151.298h-2.396c0-2.396-16.172-6.828-47.198-6.828-30.905 0-47.077 4.432-47.077 6.828H29.37c0-8.386 32.463-9.224 49.593-9.224 17.13 0 49.474.838 49.474 9.224m-49.474 35.218c-27.312 0-49.593-12.458-49.593-26.833h2.396c0 13.177 21.203 24.437 47.197 24.437s47.198-11.26 47.198-24.437h2.395c-.12 14.375-22.28 26.833-49.593 26.833"></path><path fill="#f97d2a" d="M78.963 167.23c-24.077 0-49.593-3.953-49.593-12.339h2.396c0 2.396 3.474 4.552 13.177 6.709 9.104 2.036 21.083 3.234 33.9 3.234s24.917-1.198 33.901-3.234c9.703-2.276 13.177-4.313 13.177-6.709h2.396c.12 8.386-25.396 12.339-49.354 12.339m31.877 101.81h8.2l4.68-3.86v5.26h-13.5v-12.82h8.6v-7.45h-4.06l-4.54 3.73v-5.13h15.12l-6.52 10.25h-1.8Z"></path><rect width="15.12" height="21.67" x="-7.56" y="-10.84" fill="none" rx="0" ry="0" transform="translate(118.28 260.1)"></rect><path fill="#f97d2a" d="M128.7 248.77h14.06v21.67H128.7Zm7 21.09 6.92-11.32-6.89-9.26-6.89 9.29Z"></path><rect width="14.06" height="21.67" x="-7.03" y="-10.84" fill="none" rx="0" ry="0" transform="translate(136.23 260.1)"></rect><path fill="#f97d2a" d="M433.94 268.65h8.49l4.85-4v5.45H433.3v-13.28h8.9v-7.71H438l-4.7 3.86v-5.31h15.66l-6.76 10.61h-1.85Z"></path><rect width="15.66" height="22.44" x="-7.83" y="-11.22" fill="none" rx="0" ry="0" transform="translate(441.63 259.38)"></rect><path fill="#f97d2a" d="m468.1 256.82-7.51 13.28h-8.15v-5.45l4.78 3.95h2.96v-10.33h-7.6v-10.61h14.39v5.31l-4.7-3.86h-2.99l-5.59 7.71Z"></path><rect width="15.66" height="22.44" x="-7.83" y="-11.22" fill="none" rx="0" ry="0" transform="translate(460.77 259.38)"></rect></svg></svg>